<svg width="140" height="140" viewBox="0 0 140 140" fill="none" xmlns="http://www.w3.org/2000/svg">
<path d="M0 15C0 6.71573 6.71573 0 15 0H125C133.284 0 140 6.71573 140 15V125C140 133.284 133.284 140 125 140H15C6.71573 140 0 133.284 0 125V15Z" fill="#FF0000"/>
<mask id="path-2-outside-1_15_29" maskUnits="userSpaceOnUse" x="22.6096" y="37.6736" width="98" height="67" fill="black">
<rect fill="white" x="22.6096" y="37.6736" width="98" height="67"/>
<path d="M47.712 103.275C44.3072 103.275 41.1115 102.767 38.1248 101.752C35.1979 100.737 32.6592 99.2432 30.5088 97.272C28.3584 95.3008 26.656 92.9115 25.4016 90.104C24.207 87.2368 23.6096 83.9813 23.6096 80.3376C23.6096 76.6939 24.2667 73.4384 25.5808 70.5712C26.895 67.704 28.687 65.2848 30.9568 63.3136C33.2267 61.3424 35.8251 59.8491 38.752 58.8336C41.7387 57.8181 44.9046 57.3104 48.2496 57.3104C51.8336 57.3104 54.9696 57.9376 57.6576 59.192C60.3456 60.3867 62.5856 61.8501 64.3776 63.5824L60.0768 69.2272C58.3446 67.7936 56.5526 66.6885 54.7008 65.912C52.8491 65.0757 50.848 64.6576 48.6976 64.6576C46.368 64.6576 44.2176 65.0459 42.2464 65.8224C40.2752 66.5392 38.5728 67.5845 37.1392 68.9584C35.7654 70.3323 34.6902 72.0048 33.9136 73.976C33.1371 75.8875 32.7488 78.008 32.7488 80.3376C32.7488 82.6672 33.1072 84.8176 33.824 86.7888C34.6006 88.7003 35.6758 90.3429 37.0496 91.7168C38.4832 93.0907 40.1558 94.1659 42.0672 94.9424C43.9787 95.6592 46.0992 96.0176 48.4288 96.0176C51.1168 96.0176 53.5062 95.5099 55.5968 94.4944C57.7472 93.4789 59.6886 92.2544 61.4208 90.8208L65.2736 96.5552C62.7648 98.7056 60.0171 100.378 57.0304 101.573C54.0438 102.708 50.9376 103.275 47.712 103.275Z"/>
<path d="M106.723 103.275C101.825 103.275 98.092 101.871 95.5234 99.064C92.9549 96.2565 91.6706 92.1947 91.6706 86.8784V45.752H76.6178V38.6736H100.541V87.416C100.541 90.4624 101.288 92.6725 102.781 94.0464C104.334 95.3605 106.335 96.0176 108.784 96.0176C111.054 96.0176 113.682 95.3904 116.669 94.136L118.819 100.766C116.729 101.603 114.787 102.23 112.995 102.648C111.263 103.066 109.172 103.275 106.723 103.275Z"/>
</mask>
<path d="M47.712 103.275C44.3072 103.275 41.1115 102.767 38.1248 101.752C35.1979 100.737 32.6592 99.2432 30.5088 97.272C28.3584 95.3008 26.656 92.9115 25.4016 90.104C24.207 87.2368 23.6096 83.9813 23.6096 80.3376C23.6096 76.6939 24.2667 73.4384 25.5808 70.5712C26.895 67.704 28.687 65.2848 30.9568 63.3136C33.2267 61.3424 35.8251 59.8491 38.752 58.8336C41.7387 57.8181 44.9046 57.3104 48.2496 57.3104C51.8336 57.3104 54.9696 57.9376 57.6576 59.192C60.3456 60.3867 62.5856 61.8501 64.3776 63.5824L60.0768 69.2272C58.3446 67.7936 56.5526 66.6885 54.7008 65.912C52.8491 65.0757 50.848 64.6576 48.6976 64.6576C46.368 64.6576 44.2176 65.0459 42.2464 65.8224C40.2752 66.5392 38.5728 67.5845 37.1392 68.9584C35.7654 70.3323 34.6902 72.0048 33.9136 73.976C33.1371 75.8875 32.7488 78.008 32.7488 80.3376C32.7488 82.6672 33.1072 84.8176 33.824 86.7888C34.6006 88.7003 35.6758 90.3429 37.0496 91.7168C38.4832 93.0907 40.1558 94.1659 42.0672 94.9424C43.9787 95.6592 46.0992 96.0176 48.4288 96.0176C51.1168 96.0176 53.5062 95.5099 55.5968 94.4944C57.7472 93.4789 59.6886 92.2544 61.4208 90.8208L65.2736 96.5552C62.7648 98.7056 60.0171 100.378 57.0304 101.573C54.0438 102.708 50.9376 103.275 47.712 103.275Z" fill="white"/>
<path d="M106.723 103.275C101.825 103.275 98.092 101.871 95.5234 99.064C92.9549 96.2565 91.6706 92.1947 91.6706 86.8784V45.752H76.6178V38.6736H100.541V87.416C100.541 90.4624 101.288 92.6725 102.781 94.0464C104.334 95.3605 106.335 96.0176 108.784 96.0176C111.054 96.0176 113.682 95.3904 116.669 94.136L118.819 100.766C116.729 101.603 114.787 102.23 112.995 102.648C111.263 103.066 109.172 103.275 106.723 103.275Z" fill="white"/>
<path d="M38.1248 101.752L37.797 102.697L37.8029 102.699L38.1248 101.752ZM30.5088 97.272L31.1845 96.5348L31.1845 96.5348L30.5088 97.272ZM25.4016 90.104L24.4785 90.4886L24.4834 90.5003L24.4886 90.5119L25.4016 90.104ZM38.752 58.8336L38.4301 57.8868L38.4242 57.8888L38.752 58.8336ZM57.6576 59.192L57.2347 60.0982L57.2431 60.1021L57.2515 60.1058L57.6576 59.192ZM64.3776 63.5824L65.1731 64.1884L65.7118 63.4813L65.0726 62.8634L64.3776 63.5824ZM60.0768 69.2272L59.4393 69.9976L60.2413 70.6613L60.8723 69.8332L60.0768 69.2272ZM54.7008 65.912L54.2892 66.8234L54.3016 66.8289L54.3141 66.8342L54.7008 65.912ZM42.2464 65.8224L42.5882 66.7622L42.6006 66.7577L42.6129 66.7528L42.2464 65.8224ZM37.1392 68.9584L36.4473 68.2364L36.4396 68.2438L36.4321 68.2513L37.1392 68.9584ZM33.9136 73.976L34.8401 74.3524L34.844 74.3425L33.9136 73.976ZM33.824 86.7888L32.8842 87.1305L32.8906 87.148L32.8976 87.1652L33.824 86.7888ZM37.0496 91.7168L36.3425 92.4239L36.35 92.4314L36.3577 92.4388L37.0496 91.7168ZM42.0672 94.9424L41.6908 95.8689L41.7034 95.874L41.7161 95.8787L42.0672 94.9424ZM55.5968 94.4944L55.1698 93.5901L55.1599 93.5949L55.5968 94.4944ZM61.4208 90.8208L62.2509 90.2631L61.6346 89.3458L60.7833 90.0504L61.4208 90.8208ZM65.2736 96.5552L65.9244 97.3144L66.5996 96.7357L66.1037 95.9975L65.2736 96.5552ZM57.0304 101.573L57.3856 102.508L57.3938 102.504L57.4018 102.501L57.0304 101.573ZM95.5234 99.064L94.7856 99.739L94.7856 99.739L95.5234 99.064ZM91.6706 45.752H92.6706V44.752H91.6706V45.752ZM76.6178 45.752H75.6178V46.752H76.6178V45.752ZM76.6178 38.6736V37.6736H75.6178V38.6736H76.6178ZM100.541 38.6736H101.541V37.6736H100.541V38.6736ZM102.781 94.0464L102.104 94.7823L102.119 94.7964L102.135 94.8098L102.781 94.0464ZM116.669 94.136L117.62 93.8275L117.285 92.7928L116.282 93.214L116.669 94.136ZM118.819 100.766L119.191 101.695L120.059 101.348L119.771 100.458L118.819 100.766ZM112.995 102.648L112.768 101.674L112.761 101.676L112.995 102.648ZM47.712 102.275C44.408 102.275 41.3218 101.783 38.4467 100.805L37.8029 102.699C40.9012 103.752 44.2064 104.275 47.712 104.275V102.275ZM38.4526 100.807C35.6465 99.8337 33.2282 98.4082 31.1845 96.5348L29.8331 98.0091C32.0902 100.078 34.7493 101.639 37.797 102.697L38.4526 100.807ZM31.1845 96.5348C29.1403 94.661 27.5163 92.3856 26.3146 89.696L24.4886 90.5119C25.7957 93.4373 27.5765 95.9406 29.8331 98.0091L31.1845 96.5348ZM26.3247 89.7194C25.1888 86.9932 24.6096 83.8718 24.6096 80.3376H22.6096C22.6096 84.0908 23.2251 87.4803 24.4785 90.4886L26.3247 89.7194ZM24.6096 80.3376C24.6096 76.8154 25.2443 73.7055 26.4899 70.9878L24.6718 70.1545C23.2891 73.1713 22.6096 76.5723 22.6096 80.3376H24.6096ZM26.4899 70.9878C27.7476 68.2437 29.4555 65.9418 31.6125 64.0686L30.3011 62.5586C27.9184 64.6278 26.0423 67.1643 24.6718 70.1545L26.4899 70.9878ZM31.6125 64.0686C33.7832 62.1835 36.2695 60.7533 39.0798 59.7783L38.4242 57.8888C35.3807 58.9448 32.6702 60.5012 30.3011 62.5586L31.6125 64.0686ZM39.0739 59.7804C41.9508 58.8022 45.0074 58.3104 48.2496 58.3104V56.3104C44.8017 56.3104 41.5266 56.834 38.4301 57.8868L39.0739 59.7804ZM48.2496 58.3104C51.7174 58.3104 54.7038 58.9171 57.2347 60.0982L58.0805 58.2858C55.2354 56.9581 51.9498 56.3104 48.2496 56.3104V58.3104ZM57.2515 60.1058C59.8514 61.2613 61.9884 62.6636 63.6826 64.3014L65.0726 62.8634C63.1828 61.0366 60.8399 59.512 58.0638 58.2782L57.2515 60.1058ZM63.5822 62.9763L59.2814 68.6211L60.8723 69.8332L65.1731 64.1884L63.5822 62.9763ZM60.7144 68.4568C58.9154 66.9679 57.04 65.8086 55.0875 64.9898L54.3141 66.8342C56.0651 67.5685 57.7737 68.6192 59.4393 69.9976L60.7144 68.4568ZM55.1124 65.0006C53.1238 64.1026 50.9815 63.6576 48.6976 63.6576V65.6576C50.7145 65.6576 52.5743 66.0489 54.2892 66.8234L55.1124 65.0006ZM48.6976 63.6576C46.2551 63.6576 43.9789 64.0651 41.8799 64.892L42.6129 66.7528C44.4563 66.0266 46.481 65.6576 48.6976 65.6576V63.6576ZM41.9047 64.8826C39.8104 65.6442 37.9868 66.761 36.4473 68.2364L37.8311 69.6804C39.1588 68.408 40.7401 67.4342 42.5882 66.7622L41.9047 64.8826ZM36.4321 68.2513C34.9528 69.7306 33.8054 71.5223 32.9832 73.6095L34.844 74.3425C35.5749 72.4873 36.5779 70.9339 37.8463 69.6655L36.4321 68.2513ZM32.9872 73.5996C32.1562 75.6451 31.7488 77.8955 31.7488 80.3376H33.7488C33.7488 78.1204 34.118 76.1298 34.8401 74.3524L32.9872 73.5996ZM31.7488 80.3376C31.7488 82.7709 32.1234 85.0384 32.8842 87.1305L34.7638 86.447C34.091 84.5968 33.7488 82.5635 33.7488 80.3376H31.7488ZM32.8976 87.1652C33.7212 89.1927 34.8684 90.9498 36.3425 92.4239L37.7567 91.0097C36.4831 89.7361 35.4799 88.2079 34.7505 86.4124L32.8976 87.1652ZM36.3577 92.4388C37.8862 93.9036 39.6669 95.0466 41.6908 95.8689L42.4436 94.0159C40.6446 93.2851 39.0803 92.2778 37.7415 90.9948L36.3577 92.4388ZM41.7161 95.8787C43.7545 96.6431 45.996 97.0176 48.4288 97.0176V95.0176C46.2024 95.0176 44.2029 94.6753 42.4183 94.0061L41.7161 95.8787ZM48.4288 97.0176C51.2445 97.0176 53.7871 96.4851 56.0337 95.3939L55.1599 93.5949C53.2252 94.5346 50.9891 95.0176 48.4288 95.0176V97.0176ZM56.0238 95.3986C58.2454 94.3496 60.2582 93.081 62.0584 91.5912L60.7833 90.0504C59.1189 91.4278 57.2491 92.6083 55.1698 93.5901L56.0238 95.3986ZM60.5908 91.3785L64.4436 97.1129L66.1037 95.9975L62.2509 90.2631L60.5908 91.3785ZM64.6228 95.7959C62.195 97.877 59.5411 99.4915 56.659 100.644L57.4018 102.501C60.493 101.265 63.3347 99.5342 65.9244 97.3144L64.6228 95.7959ZM56.6752 100.638C53.8031 101.729 50.8174 102.275 47.712 102.275V104.275C51.0578 104.275 54.2844 103.686 57.3856 102.508L56.6752 100.638ZM106.723 102.275C102.02 102.275 98.5894 100.934 96.2612 98.389L94.7856 99.739C97.5945 102.809 101.63 104.275 106.723 104.275V102.275ZM96.2612 98.389C93.9182 95.828 92.6706 92.0443 92.6706 86.8784H90.6706C90.6706 92.3451 91.9916 96.685 94.7856 99.739L96.2612 98.389ZM92.6706 86.8784V45.752H90.6706V86.8784H92.6706ZM91.6706 44.752H76.6178V46.752H91.6706V44.752ZM77.6178 45.752V38.6736H75.6178V45.752H77.6178ZM76.6178 39.6736H100.541V37.6736H76.6178V39.6736ZM99.541 38.6736V87.416H101.541V38.6736H99.541ZM99.541 87.416C99.541 90.6017 100.32 93.1414 102.104 94.7823L103.458 93.3105C102.255 92.2037 101.541 90.323 101.541 87.416H99.541ZM102.135 94.8098C103.904 96.3063 106.149 97.0176 108.784 97.0176V95.0176C106.521 95.0176 104.764 94.4147 103.427 93.283L102.135 94.8098ZM108.784 97.0176C111.231 97.0176 113.995 96.3436 117.056 95.058L116.282 93.214C113.369 94.4372 110.877 95.0176 108.784 95.0176V97.0176ZM115.718 94.4445L117.868 101.075L119.771 100.458L117.62 93.8275L115.718 94.4445ZM118.448 99.8379C116.394 100.659 114.502 101.27 112.768 101.674L113.223 103.622C115.073 103.19 117.063 102.546 119.191 101.695L118.448 99.8379ZM112.761 101.676C111.128 102.07 109.121 102.275 106.723 102.275V104.275C109.224 104.275 111.398 104.062 113.23 103.62L112.761 101.676Z" fill="black" fill-opacity="0.1" mask="url(#path-2-outside-1_15_29)"/>
</svg>
